<?xml version="1.0" standalone="no"?>
<!DOCTYPE svg PUBLIC "-//W3C//DTD SVG 20010904//EN"
 "http://www.w3.org/TR/2001/REC-SVG-20010904/DTD/svg10.dtd">
<svg version="1.0" xmlns="http://www.w3.org/2000/svg"
 width="588.000000pt" height="588.000000pt" viewBox="0 0 588.000000 588.000000"
 preserveAspectRatio="xMidYMid meet">
<metadata>
Created by potrace 1.14, written by Peter Selinger 2001-2017
</metadata>
<g transform="translate(0.000000,588.000000) scale(0.100000,-0.100000)"
fill="#000000" stroke="none">
<path d="M3034 5267 c3 -33 6 -1116 6 -2406 l0 -2346 90 2 c50 1 90 -2 90 -7
0 -5 13 -4 31 2 25 8 33 8 41 -3 6 -9 7 135 4 401 -7 535 -11 2275 -7 3470 l3
935 -84 -3 c-45 -2 -105 1 -132 6 l-49 10 7 -61z"/>
<path d="M2556 5308 c2 -3 5 -1085 5 -2403 l1 -2397 114 7 c85 6 118 4 129 -5
13 -11 15 -7 14 26 0 22 1 1000 2 2174 1 1174 2 2241 1 2370 l-2 235 -134 0
c-74 0 -132 -3 -130 -7z"/>
<path d="M899 4368 c0 -227 -1 -1049 -3 -1827 l-2 -1414 85 6 c47 3 250 2 451
-3 201 -5 490 -11 642 -14 l277 -6 -2 389 -2 389 -40 -32 c-62 -50 -209 -144
-262 -168 -59 -26 -191 -37 -463 -37 l-195 -1 2 1057 c2 582 3 1165 3 1297 l0
238 23 -8 c12 -4 54 -9 92 -10 39 -2 74 -3 78 -4 5 0 5 -4 2 -10 -6 -10 7 -14
34 -11 8 2 10 -3 6 -11 -3 -7 3 -2 14 11 21 23 21 23 21 2 0 -14 4 -20 12 -15
20 12 57 13 52 1 -6 -17 104 -13 119 3 9 10 9 11 0 6 -7 -4 -13 -2 -13 3 0 16
26 13 44 -5 15 -14 16 -14 16 0 0 19 16 21 26 5 5 -8 10 -6 16 5 6 10 22 16
44 16 19 0 33 -4 30 -9 -9 -14 26 -23 38 -10 8 9 7 10 -3 4 -9 -5 -12 -4 -7 3
4 6 13 9 21 6 8 -4 12 -10 9 -15 -3 -5 0 -9 5 -9 6 0 11 6 11 14 0 8 9 17 19
21 21 6 77 -25 172 -98 34 -26 64 -45 67 -43 2 3 6 161 9 351 l4 345 -726 0
-725 0 -1 -412z"/>
<path d="M3513 4393 c-1 -284 1 -380 9 -357 5 18 42 63 81 100 38 38 67 61 64
52 -4 -12 -1 -18 8 -18 8 0 15 7 15 15 0 8 14 17 35 21 19 3 35 10 35 15 0 5
7 6 15 3 8 -4 12 -11 9 -18 -3 -6 2 -2 10 8 9 11 16 14 16 7 0 -7 4 -10 9 -6
5 3 12 1 16 -5 3 -5 0 -10 -7 -10 -10 0 -9 -3 2 -10 10 -6 20 -4 32 7 16 14
18 14 24 -1 3 -9 10 -14 14 -11 5 3 11 1 15 -5 3 -5 20 -7 37 -3 22 4 29 3 24
-5 -5 -8 2 -12 18 -12 14 0 26 6 26 13 0 9 2 9 8 0 4 -6 32 -12 62 -14 78 -3
90 -1 90 16 0 45 87 9 152 -63 93 -103 118 -188 119 -403 l0 -154 102 -78 c56
-43 142 -111 191 -152 49 -41 92 -72 96 -70 4 3 13 -1 19 -9 13 -16 62 -9 74
10 4 7 10 161 13 341 6 324 6 329 -19 438 -51 224 -126 367 -259 490 -126 117
-269 192 -453 236 -70 16 -119 19 -390 19 l-310 0 -2 -387z"/>
<path d="M1943 4193 c0 -10 4 -10 16 -1 9 7 18 13 20 15 2 1 -5 1 -16 0 -11 0
-20 -7 -20 -14z"/>
<path d="M3988 4143 c7 -3 16 -2 19 1 4 3 -2 6 -13 5 -11 0 -14 -3 -6 -6z"/>
<path d="M3495 3719 c3 -74 7 -170 9 -214 2 -44 1 -147 -3 -230 -9 -174 -16
-157 104 -248 44 -34 107 -86 140 -117 33 -31 85 -76 115 -100 78 -63 201
-171 301 -265 47 -44 114 -106 148 -139 47 -44 72 -78 100 -135 35 -74 36 -79
36 -191 0 -99 -3 -124 -24 -175 -46 -114 -113 -181 -223 -224 -57 -23 -77 -25
-224 -26 l-160 0 -46 30 c-25 17 -90 67 -144 113 -53 45 -101 82 -106 82 -4 0
-8 -171 -8 -380 l0 -380 303 0 c166 0 313 -3 327 -5 22 -5 22 -4 5 4 -19 9
-18 10 5 10 14 1 83 19 154 42 195 62 344 158 413 266 18 29 37 53 42 53 5 0
14 13 21 30 7 16 23 40 36 53 13 14 30 44 38 68 8 24 30 83 50 131 68 163 72
401 11 598 -33 105 -109 253 -174 341 -60 81 -421 415 -815 753 -88 76 -213
186 -276 244 -63 58 -125 115 -137 125 l-22 20 4 -134z"/>
<path d="M4682 1354 c-23 -16 -21 -34 4 -34 8 0 13 4 10 9 -4 5 -1 11 5 13 7
2 10 9 8 16 -3 9 -10 8 -27 -4z"/>
<path d="M4634 1305 c1 -8 8 -21 16 -28 10 -10 12 -9 7 5 -4 10 -2 17 2 15 5
-1 11 3 13 8 1 6 -7 11 -19 13 -15 2 -21 -2 -19 -13z"/>
<path d="M4560 1270 c-14 -10 -46 -29 -72 -41 -35 -16 -48 -28 -48 -43 0 -27
-17 -53 -27 -43 -4 5 -3 11 3 15 13 8 15 44 2 36 -4 -3 -8 -13 -8 -22 0 -13
-2 -14 -9 -4 -10 16 -61 6 -61 -13 0 -7 13 -18 30 -25 16 -7 27 -17 23 -23 -3
-6 -1 -7 6 -3 6 4 8 12 5 18 -4 6 -1 8 7 6 8 -3 13 -12 11 -19 -2 -8 0 -10 5
-6 4 5 8 13 8 19 0 6 8 12 17 14 15 2 16 -1 7 -18 -6 -11 -8 -22 -5 -26 3 -3
6 0 6 7 0 8 5 9 19 2 14 -8 20 -7 25 4 3 8 13 15 21 15 15 0 15 2 2 15 -9 8
-17 20 -20 27 -2 8 -8 9 -13 4 -5 -5 -4 -11 4 -13 6 -3 12 -10 12 -16 0 -6 -7
-4 -16 5 -25 25 -10 35 50 33 45 -1 55 2 59 17 7 23 -1 27 -58 30 -33 1 -42 4
-31 10 9 5 21 6 28 2 6 -4 8 -3 4 4 -7 12 39 24 72 18 12 -3 22 -1 22 5 0 5
-12 9 -26 9 -14 0 -23 4 -19 10 10 16 -8 11 -35 -10z m-161 -126 c3 -16 1 -17
-13 -5 -19 16 -21 34 -3 29 6 -3 14 -13 16 -24z"/>
<path d="M4673 1274 c-3 -8 -2 -19 3 -24 5 -5 9 1 9 16 0 28 -3 30 -12 8z"/>
<path d="M4634 1221 c0 -11 5 -17 13 -14 10 4 11 9 2 19 -15 18 -15 18 -15 -5z"/>
<path d="M4530 1146 c0 -2 7 -7 16 -10 8 -3 12 -2 9 4 -6 10 -25 14 -25 6z"/>
<path d="M4185 1119 c-17 -8 -15 -8 8 -4 15 3 27 1 27 -4 0 -14 29 -21 36 -9
4 7 3 8 -5 4 -6 -4 -14 0 -17 8 -7 18 -19 19 -49 5z"/>
<path d="M4585 1109 c-4 -6 -5 -12 -2 -15 2 -3 7 2 10 11 7 17 1 20 -8 4z"/>
<path d="M3995 1100 c3 -5 8 -10 11 -10 2 0 4 5 4 10 0 6 -5 10 -11 10 -5 0
-7 -4 -4 -10z"/>
<path d="M4041 1094 c0 -11 3 -14 6 -6 3 7 2 16 -1 19 -3 4 -6 -2 -5 -13z"/>
<path d="M4080 1100 c0 -5 5 -10 11 -10 5 0 7 5 4 10 -3 6 -8 10 -11 10 -2 0
-4 -4 -4 -10z"/>
<path d="M4440 1069 c0 -5 5 -7 10 -4 6 3 10 8 10 11 0 2 -4 4 -10 4 -5 0 -10
-5 -10 -11z"/>
<path d="M4336 1047 c3 -10 9 -15 12 -12 3 3 0 11 -7 18 -10 9 -11 8 -5 -6z"/>
<path d="M1060 979 c0 -2 35 -38 77 -79 43 -41 61 -57 40 -35 -30 34 -35 43
-25 55 11 12 10 12 -4 1 -15 -11 -18 -11 -18 3 0 9 -5 16 -12 16 -6 0 -22 10
-35 22 -13 12 -23 19 -23 17z"/>
</g>
</svg>
